<?xml version="1.0" encoding="UTF-8"?>
<svg xmlns="http://www.w3.org/2000/svg" viewBox="0 0 888 204" role="img" aria-label="kinncj statusline">
  <title>kinncj statusline</title>
  <g fill="#5FD7D7" shape-rendering="crispEdges">
    <rect x="30" y="12" width="18" height="24"/>
    <rect x="48" y="12" width="18" height="24"/>
    <rect x="66" y="20" width="13" height="3"/>
    <rect x="76" y="20" width="3" height="16"/>
    <rect x="66" y="25" width="8" height="3"/>
    <rect x="71" y="25" width="3" height="11"/>
    <rect x="120" y="12" width="18" height="24"/>
    <rect x="138" y="12" width="18" height="24"/>
    <rect x="156" y="20" width="13" height="3"/>
    <rect x="166" y="20" width="3" height="16"/>
    <rect x="156" y="25" width="8" height="3"/>
    <rect x="161" y="25" width="3" height="11"/>
    <rect x="174" y="12" width="18" height="24"/>
    <rect x="192" y="12" width="18" height="24"/>
    <rect x="210" y="20" width="13" height="3"/>
    <rect x="220" y="20" width="3" height="16"/>
    <rect x="210" y="25" width="8" height="3"/>
    <rect x="215" y="25" width="3" height="11"/>
    <rect x="228" y="12" width="18" height="24"/>
    <rect x="246" y="12" width="18" height="24"/>
    <rect x="264" y="12" width="18" height="24"/>
    <rect x="282" y="20" width="13" height="3"/>
    <rect x="292" y="20" width="3" height="16"/>
    <rect x="282" y="25" width="8" height="3"/>
    <rect x="287" y="25" width="3" height="11"/>
    <rect x="354" y="12" width="18" height="24"/>
    <rect x="372" y="12" width="18" height="24"/>
    <rect x="390" y="20" width="13" height="3"/>
    <rect x="400" y="20" width="3" height="16"/>
    <rect x="390" y="25" width="8" height="3"/>
    <rect x="395" y="25" width="3" height="11"/>
    <rect x="408" y="12" width="18" height="24"/>
    <rect x="426" y="12" width="18" height="24"/>
    <rect x="444" y="12" width="18" height="24"/>
    <rect x="462" y="20" width="13" height="3"/>
    <rect x="472" y="20" width="3" height="16"/>
    <rect x="462" y="25" width="8" height="3"/>
    <rect x="467" y="25" width="3" height="11"/>
    <rect x="534" y="12" width="18" height="24"/>
    <rect x="552" y="12" width="18" height="24"/>
    <rect x="570" y="20" width="13" height="3"/>
    <rect x="580" y="20" width="3" height="16"/>
    <rect x="570" y="25" width="8" height="3"/>
    <rect x="575" y="25" width="3" height="11"/>
    <rect x="606" y="12" width="18" height="24"/>
    <rect x="624" y="12" width="18" height="24"/>
    <rect x="642" y="12" width="18" height="24"/>
    <rect x="660" y="12" width="18" height="24"/>
    <rect x="678" y="12" width="18" height="24"/>
    <rect x="696" y="12" width="18" height="24"/>
    <rect x="714" y="20" width="13" height="3"/>
    <rect x="724" y="20" width="3" height="16"/>
    <rect x="714" y="25" width="8" height="3"/>
    <rect x="719" y="25" width="3" height="11"/>
    <rect x="822" y="12" width="18" height="24"/>
    <rect x="840" y="12" width="18" height="24"/>
    <rect x="858" y="20" width="13" height="3"/>
    <rect x="868" y="20" width="3" height="16"/>
    <rect x="858" y="25" width="8" height="3"/>
    <rect x="863" y="25" width="3" height="11"/>
    <rect x="30" y="36" width="18" height="24"/>
    <rect x="48" y="36" width="18" height="24"/>
    <rect x="71" y="36" width="3" height="24"/>
    <rect x="76" y="36" width="3" height="24"/>
    <rect x="102" y="36" width="18" height="24"/>
    <rect x="120" y="36" width="18" height="24"/>
    <rect x="143" y="44" width="13" height="3"/>
    <rect x="143" y="44" width="3" height="16"/>
    <rect x="148" y="49" width="8" height="3"/>
    <rect x="148" y="49" width="3" height="11"/>
    <rect x="156" y="49" width="13" height="3"/>
    <rect x="166" y="36" width="3" height="16"/>
    <rect x="156" y="44" width="8" height="3"/>
    <rect x="161" y="36" width="3" height="11"/>
    <rect x="174" y="36" width="18" height="24"/>
    <rect x="192" y="36" width="18" height="24"/>
    <rect x="215" y="36" width="3" height="24"/>
    <rect x="220" y="36" width="3" height="24"/>
    <rect x="228" y="36" width="18" height="24"/>
    <rect x="246" y="36" width="18" height="24"/>
    <rect x="264" y="36" width="18" height="24"/>
    <rect x="282" y="36" width="18" height="24"/>
    <rect x="300" y="44" width="13" height="3"/>
    <rect x="310" y="44" width="3" height="16"/>
    <rect x="300" y="49" width="8" height="3"/>
    <rect x="305" y="49" width="3" height="11"/>
    <rect x="354" y="36" width="18" height="24"/>
    <rect x="372" y="36" width="18" height="24"/>
    <rect x="395" y="36" width="3" height="24"/>
    <rect x="400" y="36" width="3" height="24"/>
    <rect x="408" y="36" width="18" height="24"/>
    <rect x="426" y="36" width="18" height="24"/>
    <rect x="444" y="36" width="18" height="24"/>
    <rect x="462" y="36" width="18" height="24"/>
    <rect x="480" y="44" width="13" height="3"/>
    <rect x="490" y="44" width="3" height="16"/>
    <rect x="480" y="49" width="8" height="3"/>
    <rect x="485" y="49" width="3" height="11"/>
    <rect x="534" y="36" width="18" height="24"/>
    <rect x="552" y="36" width="18" height="24"/>
    <rect x="575" y="36" width="3" height="24"/>
    <rect x="580" y="36" width="3" height="24"/>
    <rect x="588" y="36" width="18" height="24"/>
    <rect x="606" y="36" width="18" height="24"/>
    <rect x="629" y="44" width="13" height="3"/>
    <rect x="629" y="44" width="3" height="16"/>
    <rect x="634" y="49" width="8" height="3"/>
    <rect x="634" y="49" width="3" height="11"/>
    <rect x="642" y="44" width="18" height="3"/>
    <rect x="642" y="49" width="18" height="3"/>
    <rect x="660" y="44" width="18" height="3"/>
    <rect x="660" y="49" width="18" height="3"/>
    <rect x="678" y="44" width="18" height="3"/>
    <rect x="678" y="49" width="18" height="3"/>
    <rect x="696" y="44" width="18" height="3"/>
    <rect x="696" y="49" width="18" height="3"/>
    <rect x="714" y="49" width="13" height="3"/>
    <rect x="724" y="36" width="3" height="16"/>
    <rect x="714" y="44" width="8" height="3"/>
    <rect x="719" y="36" width="3" height="11"/>
    <rect x="822" y="36" width="18" height="24"/>
    <rect x="840" y="36" width="18" height="24"/>
    <rect x="863" y="36" width="3" height="24"/>
    <rect x="868" y="36" width="3" height="24"/>
    <rect x="30" y="60" width="18" height="24"/>
    <rect x="48" y="60" width="18" height="24"/>
    <rect x="66" y="60" width="18" height="24"/>
    <rect x="84" y="60" width="18" height="24"/>
    <rect x="102" y="60" width="18" height="24"/>
    <rect x="125" y="68" width="13" height="3"/>
    <rect x="125" y="68" width="3" height="16"/>
    <rect x="130" y="73" width="8" height="3"/>
    <rect x="130" y="73" width="3" height="11"/>
    <rect x="138" y="73" width="13" height="3"/>
    <rect x="148" y="60" width="3" height="16"/>
    <rect x="138" y="68" width="8" height="3"/>
    <rect x="143" y="60" width="3" height="11"/>
    <rect x="174" y="60" width="18" height="24"/>
    <rect x="192" y="60" width="18" height="24"/>
    <rect x="215" y="60" width="3" height="24"/>
    <rect x="220" y="60" width="3" height="24"/>
    <rect x="228" y="60" width="18" height="24"/>
    <rect x="246" y="60" width="18" height="24"/>
    <rect x="269" y="68" width="13" height="3"/>
    <rect x="269" y="68" width="3" height="16"/>
    <rect x="274" y="73" width="8" height="3"/>
    <rect x="274" y="73" width="3" height="11"/>
    <rect x="282" y="60" width="18" height="24"/>
    <rect x="300" y="60" width="18" height="24"/>
    <rect x="318" y="68" width="13" height="3"/>
    <rect x="328" y="68" width="3" height="16"/>
    <rect x="318" y="73" width="8" height="3"/>
    <rect x="323" y="73" width="3" height="11"/>
    <rect x="354" y="60" width="18" height="24"/>
    <rect x="372" y="60" width="18" height="24"/>
    <rect x="395" y="60" width="3" height="24"/>
    <rect x="400" y="60" width="3" height="24"/>
    <rect x="408" y="60" width="18" height="24"/>
    <rect x="426" y="60" width="18" height="24"/>
    <rect x="449" y="68" width="13" height="3"/>
    <rect x="449" y="68" width="3" height="16"/>
    <rect x="454" y="73" width="8" height="3"/>
    <rect x="454" y="73" width="3" height="11"/>
    <rect x="462" y="60" width="18" height="24"/>
    <rect x="480" y="60" width="18" height="24"/>
    <rect x="498" y="68" width="13" height="3"/>
    <rect x="508" y="68" width="3" height="16"/>
    <rect x="498" y="73" width="8" height="3"/>
    <rect x="503" y="73" width="3" height="11"/>
    <rect x="534" y="60" width="18" height="24"/>
    <rect x="552" y="60" width="18" height="24"/>
    <rect x="575" y="60" width="3" height="24"/>
    <rect x="580" y="60" width="3" height="24"/>
    <rect x="588" y="60" width="18" height="24"/>
    <rect x="606" y="60" width="18" height="24"/>
    <rect x="629" y="60" width="3" height="24"/>
    <rect x="634" y="60" width="3" height="24"/>
    <rect x="822" y="60" width="18" height="24"/>
    <rect x="840" y="60" width="18" height="24"/>
    <rect x="863" y="60" width="3" height="24"/>
    <rect x="868" y="60" width="3" height="24"/>
    <rect x="30" y="84" width="18" height="24"/>
    <rect x="48" y="84" width="18" height="24"/>
    <rect x="71" y="92" width="13" height="3"/>
    <rect x="71" y="92" width="3" height="16"/>
    <rect x="76" y="97" width="8" height="3"/>
    <rect x="76" y="97" width="3" height="11"/>
    <rect x="84" y="92" width="18" height="3"/>
    <rect x="84" y="97" width="18" height="3"/>
    <rect x="102" y="84" width="18" height="24"/>
    <rect x="120" y="84" width="18" height="24"/>
    <rect x="138" y="92" width="13" height="3"/>
    <rect x="148" y="92" width="3" height="16"/>
    <rect x="138" y="97" width="8" height="3"/>
    <rect x="143" y="97" width="3" height="11"/>
    <rect x="174" y="84" width="18" height="24"/>
    <rect x="192" y="84" width="18" height="24"/>
    <rect x="215" y="84" width="3" height="24"/>
    <rect x="220" y="84" width="3" height="24"/>
    <rect x="228" y="84" width="18" height="24"/>
    <rect x="246" y="84" width="18" height="24"/>
    <rect x="269" y="84" width="3" height="24"/>
    <rect x="274" y="84" width="3" height="24"/>
    <rect x="287" y="97" width="13" height="3"/>
    <rect x="287" y="84" width="3" height="16"/>
    <rect x="292" y="92" width="8" height="3"/>
    <rect x="292" y="84" width="3" height="11"/>
    <rect x="300" y="84" width="18" height="24"/>
    <rect x="318" y="84" width="18" height="24"/>
    <rect x="336" y="92" width="13" height="3"/>
    <rect x="346" y="92" width="3" height="16"/>
    <rect x="336" y="97" width="8" height="3"/>
    <rect x="341" y="97" width="3" height="11"/>
    <rect x="354" y="84" width="18" height="24"/>
    <rect x="372" y="84" width="18" height="24"/>
    <rect x="395" y="84" width="3" height="24"/>
    <rect x="400" y="84" width="3" height="24"/>
    <rect x="408" y="84" width="18" height="24"/>
    <rect x="426" y="84" width="18" height="24"/>
    <rect x="449" y="84" width="3" height="24"/>
    <rect x="454" y="84" width="3" height="24"/>
    <rect x="467" y="97" width="13" height="3"/>
    <rect x="467" y="84" width="3" height="16"/>
    <rect x="472" y="92" width="8" height="3"/>
    <rect x="472" y="84" width="3" height="11"/>
    <rect x="480" y="84" width="18" height="24"/>
    <rect x="498" y="84" width="18" height="24"/>
    <rect x="516" y="92" width="13" height="3"/>
    <rect x="526" y="92" width="3" height="16"/>
    <rect x="516" y="97" width="8" height="3"/>
    <rect x="521" y="97" width="3" height="11"/>
    <rect x="534" y="84" width="18" height="24"/>
    <rect x="552" y="84" width="18" height="24"/>
    <rect x="575" y="84" width="3" height="24"/>
    <rect x="580" y="84" width="3" height="24"/>
    <rect x="588" y="84" width="18" height="24"/>
    <rect x="606" y="84" width="18" height="24"/>
    <rect x="629" y="84" width="3" height="24"/>
    <rect x="634" y="84" width="3" height="24"/>
    <rect x="732" y="84" width="18" height="24"/>
    <rect x="750" y="84" width="18" height="24"/>
    <rect x="822" y="84" width="18" height="24"/>
    <rect x="840" y="84" width="18" height="24"/>
    <rect x="863" y="84" width="3" height="24"/>
    <rect x="868" y="84" width="3" height="24"/>
    <rect x="30" y="108" width="18" height="24"/>
    <rect x="48" y="108" width="18" height="24"/>
    <rect x="71" y="108" width="3" height="24"/>
    <rect x="76" y="108" width="3" height="24"/>
    <rect x="120" y="108" width="18" height="24"/>
    <rect x="138" y="108" width="18" height="24"/>
    <rect x="156" y="116" width="13" height="3"/>
    <rect x="166" y="116" width="3" height="16"/>
    <rect x="156" y="121" width="8" height="3"/>
    <rect x="161" y="121" width="3" height="11"/>
    <rect x="174" y="108" width="18" height="24"/>
    <rect x="192" y="108" width="18" height="24"/>
    <rect x="215" y="108" width="3" height="24"/>
    <rect x="220" y="108" width="3" height="24"/>
    <rect x="228" y="108" width="18" height="24"/>
    <rect x="246" y="108" width="18" height="24"/>
    <rect x="269" y="108" width="3" height="24"/>
    <rect x="274" y="108" width="3" height="24"/>
    <rect x="305" y="121" width="13" height="3"/>
    <rect x="305" y="108" width="3" height="16"/>
    <rect x="310" y="116" width="8" height="3"/>
    <rect x="310" y="108" width="3" height="11"/>
    <rect x="318" y="108" width="18" height="24"/>
    <rect x="336" y="108" width="18" height="24"/>
    <rect x="354" y="108" width="18" height="24"/>
    <rect x="372" y="108" width="18" height="24"/>
    <rect x="395" y="108" width="3" height="24"/>
    <rect x="400" y="108" width="3" height="24"/>
    <rect x="408" y="108" width="18" height="24"/>
    <rect x="426" y="108" width="18" height="24"/>
    <rect x="449" y="108" width="3" height="24"/>
    <rect x="454" y="108" width="3" height="24"/>
    <rect x="485" y="121" width="13" height="3"/>
    <rect x="485" y="108" width="3" height="16"/>
    <rect x="490" y="116" width="8" height="3"/>
    <rect x="490" y="108" width="3" height="11"/>
    <rect x="498" y="108" width="18" height="24"/>
    <rect x="516" y="108" width="18" height="24"/>
    <rect x="534" y="108" width="18" height="24"/>
    <rect x="552" y="108" width="18" height="24"/>
    <rect x="575" y="108" width="3" height="24"/>
    <rect x="580" y="108" width="3" height="24"/>
    <rect x="593" y="121" width="13" height="3"/>
    <rect x="593" y="108" width="3" height="16"/>
    <rect x="598" y="116" width="8" height="3"/>
    <rect x="598" y="108" width="3" height="11"/>
    <rect x="606" y="108" width="18" height="24"/>
    <rect x="624" y="108" width="18" height="24"/>
    <rect x="642" y="108" width="18" height="24"/>
    <rect x="660" y="108" width="18" height="24"/>
    <rect x="678" y="108" width="18" height="24"/>
    <rect x="696" y="108" width="18" height="24"/>
    <rect x="714" y="116" width="13" height="3"/>
    <rect x="724" y="116" width="3" height="16"/>
    <rect x="714" y="121" width="8" height="3"/>
    <rect x="719" y="121" width="3" height="11"/>
    <rect x="737" y="121" width="13" height="3"/>
    <rect x="737" y="108" width="3" height="16"/>
    <rect x="742" y="116" width="8" height="3"/>
    <rect x="742" y="108" width="3" height="11"/>
    <rect x="750" y="108" width="18" height="24"/>
    <rect x="768" y="108" width="18" height="24"/>
    <rect x="786" y="108" width="18" height="24"/>
    <rect x="804" y="108" width="18" height="24"/>
    <rect x="822" y="108" width="18" height="24"/>
    <rect x="845" y="116" width="13" height="3"/>
    <rect x="845" y="116" width="3" height="16"/>
    <rect x="850" y="121" width="8" height="3"/>
    <rect x="850" y="121" width="3" height="11"/>
    <rect x="858" y="121" width="13" height="3"/>
    <rect x="868" y="108" width="3" height="16"/>
    <rect x="858" y="116" width="8" height="3"/>
    <rect x="863" y="108" width="3" height="11"/>
    <rect x="35" y="145" width="13" height="3"/>
    <rect x="35" y="132" width="3" height="16"/>
    <rect x="40" y="140" width="8" height="3"/>
    <rect x="40" y="132" width="3" height="11"/>
    <rect x="48" y="140" width="18" height="3"/>
    <rect x="48" y="145" width="18" height="3"/>
    <rect x="66" y="145" width="13" height="3"/>
    <rect x="76" y="132" width="3" height="16"/>
    <rect x="66" y="140" width="8" height="3"/>
    <rect x="71" y="132" width="3" height="11"/>
    <rect x="125" y="145" width="13" height="3"/>
    <rect x="125" y="132" width="3" height="16"/>
    <rect x="130" y="140" width="8" height="3"/>
    <rect x="130" y="132" width="3" height="11"/>
    <rect x="138" y="140" width="18" height="3"/>
    <rect x="138" y="145" width="18" height="3"/>
    <rect x="156" y="145" width="13" height="3"/>
    <rect x="166" y="132" width="3" height="16"/>
    <rect x="156" y="140" width="8" height="3"/>
    <rect x="161" y="132" width="3" height="11"/>
    <rect x="179" y="145" width="13" height="3"/>
    <rect x="179" y="132" width="3" height="16"/>
    <rect x="184" y="140" width="8" height="3"/>
    <rect x="184" y="132" width="3" height="11"/>
    <rect x="192" y="140" width="18" height="3"/>
    <rect x="192" y="145" width="18" height="3"/>
    <rect x="210" y="145" width="13" height="3"/>
    <rect x="220" y="132" width="3" height="16"/>
    <rect x="210" y="140" width="8" height="3"/>
    <rect x="215" y="132" width="3" height="11"/>
    <rect x="233" y="145" width="13" height="3"/>
    <rect x="233" y="132" width="3" height="16"/>
    <rect x="238" y="140" width="8" height="3"/>
    <rect x="238" y="132" width="3" height="11"/>
    <rect x="246" y="140" width="18" height="3"/>
    <rect x="246" y="145" width="18" height="3"/>
    <rect x="264" y="145" width="13" height="3"/>
    <rect x="274" y="132" width="3" height="16"/>
    <rect x="264" y="140" width="8" height="3"/>
    <rect x="269" y="132" width="3" height="11"/>
    <rect x="323" y="145" width="13" height="3"/>
    <rect x="323" y="132" width="3" height="16"/>
    <rect x="328" y="140" width="8" height="3"/>
    <rect x="328" y="132" width="3" height="11"/>
    <rect x="336" y="140" width="18" height="3"/>
    <rect x="336" y="145" width="18" height="3"/>
    <rect x="354" y="140" width="18" height="3"/>
    <rect x="354" y="145" width="18" height="3"/>
    <rect x="372" y="140" width="18" height="3"/>
    <rect x="372" y="145" width="18" height="3"/>
    <rect x="390" y="145" width="13" height="3"/>
    <rect x="400" y="132" width="3" height="16"/>
    <rect x="390" y="140" width="8" height="3"/>
    <rect x="395" y="132" width="3" height="11"/>
    <rect x="413" y="145" width="13" height="3"/>
    <rect x="413" y="132" width="3" height="16"/>
    <rect x="418" y="140" width="8" height="3"/>
    <rect x="418" y="132" width="3" height="11"/>
    <rect x="426" y="140" width="18" height="3"/>
    <rect x="426" y="145" width="18" height="3"/>
    <rect x="444" y="145" width="13" height="3"/>
    <rect x="454" y="132" width="3" height="16"/>
    <rect x="444" y="140" width="8" height="3"/>
    <rect x="449" y="132" width="3" height="11"/>
    <rect x="503" y="145" width="13" height="3"/>
    <rect x="503" y="132" width="3" height="16"/>
    <rect x="508" y="140" width="8" height="3"/>
    <rect x="508" y="132" width="3" height="11"/>
    <rect x="516" y="140" width="18" height="3"/>
    <rect x="516" y="145" width="18" height="3"/>
    <rect x="534" y="140" width="18" height="3"/>
    <rect x="534" y="145" width="18" height="3"/>
    <rect x="552" y="140" width="18" height="3"/>
    <rect x="552" y="145" width="18" height="3"/>
    <rect x="570" y="145" width="13" height="3"/>
    <rect x="580" y="132" width="3" height="16"/>
    <rect x="570" y="140" width="8" height="3"/>
    <rect x="575" y="132" width="3" height="11"/>
    <rect x="611" y="145" width="13" height="3"/>
    <rect x="611" y="132" width="3" height="16"/>
    <rect x="616" y="140" width="8" height="3"/>
    <rect x="616" y="132" width="3" height="11"/>
    <rect x="624" y="140" width="18" height="3"/>
    <rect x="624" y="145" width="18" height="3"/>
    <rect x="642" y="140" width="18" height="3"/>
    <rect x="642" y="145" width="18" height="3"/>
    <rect x="660" y="140" width="18" height="3"/>
    <rect x="660" y="145" width="18" height="3"/>
    <rect x="678" y="140" width="18" height="3"/>
    <rect x="678" y="145" width="18" height="3"/>
    <rect x="696" y="140" width="18" height="3"/>
    <rect x="696" y="145" width="18" height="3"/>
    <rect x="714" y="145" width="13" height="3"/>
    <rect x="724" y="132" width="3" height="16"/>
    <rect x="714" y="140" width="8" height="3"/>
    <rect x="719" y="132" width="3" height="11"/>
    <rect x="755" y="145" width="13" height="3"/>
    <rect x="755" y="132" width="3" height="16"/>
    <rect x="760" y="140" width="8" height="3"/>
    <rect x="760" y="132" width="3" height="11"/>
    <rect x="768" y="140" width="18" height="3"/>
    <rect x="768" y="145" width="18" height="3"/>
    <rect x="786" y="140" width="18" height="3"/>
    <rect x="786" y="145" width="18" height="3"/>
    <rect x="804" y="140" width="18" height="3"/>
    <rect x="804" y="145" width="18" height="3"/>
    <rect x="822" y="140" width="18" height="3"/>
    <rect x="822" y="145" width="18" height="3"/>
    <rect x="840" y="145" width="13" height="3"/>
    <rect x="850" y="132" width="3" height="16"/>
    <rect x="840" y="140" width="8" height="3"/>
    <rect x="845" y="132" width="3" height="11"/>
  </g>
  <text x="444" y="184" font-family="ui-monospace, 'JetBrains Mono', Menlo, Consolas, monospace" font-size="16" fill="#888" letter-spacing="2" text-anchor="middle">s · t · a · t · u · s · l · i · n · e</text>
</svg>
