<?xml version="1.0" encoding="UTF-8"?>
<svg xmlns="http://www.w3.org/2000/svg" viewBox="0 0 592 140" role="img" aria-label="kinncj statusline">
  <title>kinncj statusline</title>
  <g fill="#5FD7D7" shape-rendering="crispEdges">
    <rect x="20" y="8" width="12" height="16"/>
    <rect x="32" y="8" width="12" height="16"/>
    <rect x="44" y="8" width="12" height="16"/>
    <rect x="80" y="8" width="12" height="16"/>
    <rect x="92" y="8" width="12" height="16"/>
    <rect x="104" y="8" width="12" height="16"/>
    <rect x="116" y="8" width="12" height="16"/>
    <rect x="128" y="8" width="12" height="16"/>
    <rect x="140" y="8" width="12" height="16"/>
    <rect x="152" y="8" width="12" height="16"/>
    <rect x="164" y="8" width="12" height="16"/>
    <rect x="176" y="8" width="12" height="16"/>
    <rect x="188" y="8" width="12" height="16"/>
    <rect x="236" y="8" width="12" height="16"/>
    <rect x="248" y="8" width="12" height="16"/>
    <rect x="260" y="8" width="12" height="16"/>
    <rect x="272" y="8" width="12" height="16"/>
    <rect x="284" y="8" width="12" height="16"/>
    <rect x="296" y="8" width="12" height="16"/>
    <rect x="308" y="8" width="12" height="16"/>
    <rect x="356" y="8" width="12" height="16"/>
    <rect x="368" y="8" width="12" height="16"/>
    <rect x="380" y="8" width="12" height="16"/>
    <rect x="404" y="8" width="12" height="16"/>
    <rect x="416" y="8" width="12" height="16"/>
    <rect x="428" y="8" width="12" height="16"/>
    <rect x="440" y="8" width="12" height="16"/>
    <rect x="452" y="8" width="12" height="16"/>
    <rect x="464" y="8" width="12" height="16"/>
    <rect x="476" y="8" width="12" height="16"/>
    <rect x="548" y="8" width="12" height="16"/>
    <rect x="560" y="8" width="12" height="16"/>
    <rect x="572" y="8" width="12" height="16"/>
    <rect x="20" y="24" width="12" height="16"/>
    <rect x="32" y="24" width="12" height="16"/>
    <rect x="44" y="24" width="12" height="16"/>
    <rect x="68" y="24" width="12" height="16"/>
    <rect x="80" y="24" width="12" height="16"/>
    <rect x="92" y="24" width="12" height="16"/>
    <rect x="104" y="24" width="12" height="16"/>
    <rect x="116" y="24" width="12" height="16"/>
    <rect x="128" y="24" width="12" height="16"/>
    <rect x="140" y="24" width="12" height="16"/>
    <rect x="152" y="24" width="12" height="16"/>
    <rect x="164" y="24" width="12" height="16"/>
    <rect x="176" y="24" width="12" height="16"/>
    <rect x="188" y="24" width="12" height="16"/>
    <rect x="200" y="24" width="12" height="16"/>
    <rect x="236" y="24" width="12" height="16"/>
    <rect x="248" y="24" width="12" height="16"/>
    <rect x="260" y="24" width="12" height="16"/>
    <rect x="272" y="24" width="12" height="16"/>
    <rect x="284" y="24" width="12" height="16"/>
    <rect x="296" y="24" width="12" height="16"/>
    <rect x="308" y="24" width="12" height="16"/>
    <rect x="320" y="24" width="12" height="16"/>
    <rect x="356" y="24" width="12" height="16"/>
    <rect x="368" y="24" width="12" height="16"/>
    <rect x="380" y="24" width="12" height="16"/>
    <rect x="392" y="24" width="12" height="16"/>
    <rect x="404" y="24" width="12" height="16"/>
    <rect x="416" y="24" width="12" height="16"/>
    <rect x="428" y="24" width="12" height="16"/>
    <rect x="440" y="24" width="12" height="16"/>
    <rect x="452" y="24" width="12" height="16"/>
    <rect x="464" y="24" width="12" height="16"/>
    <rect x="476" y="24" width="12" height="16"/>
    <rect x="548" y="24" width="12" height="16"/>
    <rect x="560" y="24" width="12" height="16"/>
    <rect x="572" y="24" width="12" height="16"/>
    <rect x="20" y="40" width="12" height="16"/>
    <rect x="32" y="40" width="12" height="16"/>
    <rect x="44" y="40" width="12" height="16"/>
    <rect x="56" y="40" width="12" height="16"/>
    <rect x="68" y="40" width="12" height="16"/>
    <rect x="80" y="40" width="12" height="16"/>
    <rect x="92" y="40" width="12" height="16"/>
    <rect x="116" y="40" width="12" height="16"/>
    <rect x="128" y="40" width="12" height="16"/>
    <rect x="140" y="40" width="12" height="16"/>
    <rect x="152" y="40" width="12" height="16"/>
    <rect x="164" y="40" width="12" height="16"/>
    <rect x="176" y="40" width="12" height="16"/>
    <rect x="188" y="40" width="12" height="16"/>
    <rect x="200" y="40" width="12" height="16"/>
    <rect x="212" y="40" width="12" height="16"/>
    <rect x="236" y="40" width="12" height="16"/>
    <rect x="248" y="40" width="12" height="16"/>
    <rect x="260" y="40" width="12" height="16"/>
    <rect x="272" y="40" width="12" height="16"/>
    <rect x="284" y="40" width="12" height="16"/>
    <rect x="296" y="40" width="12" height="16"/>
    <rect x="308" y="40" width="12" height="16"/>
    <rect x="320" y="40" width="12" height="16"/>
    <rect x="332" y="40" width="12" height="16"/>
    <rect x="356" y="40" width="12" height="16"/>
    <rect x="368" y="40" width="12" height="16"/>
    <rect x="380" y="40" width="12" height="16"/>
    <rect x="392" y="40" width="12" height="16"/>
    <rect x="404" y="40" width="12" height="16"/>
    <rect x="416" y="40" width="12" height="16"/>
    <rect x="548" y="40" width="12" height="16"/>
    <rect x="560" y="40" width="12" height="16"/>
    <rect x="572" y="40" width="12" height="16"/>
    <rect x="20" y="56" width="12" height="16"/>
    <rect x="32" y="56" width="12" height="16"/>
    <rect x="44" y="56" width="12" height="16"/>
    <rect x="56" y="56" width="12" height="16"/>
    <rect x="68" y="56" width="12" height="16"/>
    <rect x="80" y="56" width="12" height="16"/>
    <rect x="92" y="56" width="12" height="16"/>
    <rect x="116" y="56" width="12" height="16"/>
    <rect x="128" y="56" width="12" height="16"/>
    <rect x="140" y="56" width="12" height="16"/>
    <rect x="152" y="56" width="12" height="16"/>
    <rect x="164" y="56" width="12" height="16"/>
    <rect x="176" y="56" width="12" height="16"/>
    <rect x="188" y="56" width="12" height="16"/>
    <rect x="200" y="56" width="12" height="16"/>
    <rect x="212" y="56" width="12" height="16"/>
    <rect x="224" y="56" width="12" height="16"/>
    <rect x="236" y="56" width="12" height="16"/>
    <rect x="248" y="56" width="12" height="16"/>
    <rect x="260" y="56" width="12" height="16"/>
    <rect x="272" y="56" width="12" height="16"/>
    <rect x="284" y="56" width="12" height="16"/>
    <rect x="296" y="56" width="12" height="16"/>
    <rect x="308" y="56" width="12" height="16"/>
    <rect x="320" y="56" width="12" height="16"/>
    <rect x="332" y="56" width="12" height="16"/>
    <rect x="344" y="56" width="12" height="16"/>
    <rect x="356" y="56" width="12" height="16"/>
    <rect x="368" y="56" width="12" height="16"/>
    <rect x="380" y="56" width="12" height="16"/>
    <rect x="392" y="56" width="12" height="16"/>
    <rect x="404" y="56" width="12" height="16"/>
    <rect x="416" y="56" width="12" height="16"/>
    <rect x="488" y="56" width="12" height="16"/>
    <rect x="500" y="56" width="12" height="16"/>
    <rect x="548" y="56" width="12" height="16"/>
    <rect x="560" y="56" width="12" height="16"/>
    <rect x="572" y="56" width="12" height="16"/>
    <rect x="20" y="72" width="12" height="16"/>
    <rect x="32" y="72" width="12" height="16"/>
    <rect x="44" y="72" width="12" height="16"/>
    <rect x="80" y="72" width="12" height="16"/>
    <rect x="92" y="72" width="12" height="16"/>
    <rect x="104" y="72" width="12" height="16"/>
    <rect x="116" y="72" width="12" height="16"/>
    <rect x="128" y="72" width="12" height="16"/>
    <rect x="140" y="72" width="12" height="16"/>
    <rect x="152" y="72" width="12" height="16"/>
    <rect x="164" y="72" width="12" height="16"/>
    <rect x="176" y="72" width="12" height="16"/>
    <rect x="200" y="72" width="12" height="16"/>
    <rect x="212" y="72" width="12" height="16"/>
    <rect x="224" y="72" width="12" height="16"/>
    <rect x="236" y="72" width="12" height="16"/>
    <rect x="248" y="72" width="12" height="16"/>
    <rect x="260" y="72" width="12" height="16"/>
    <rect x="272" y="72" width="12" height="16"/>
    <rect x="284" y="72" width="12" height="16"/>
    <rect x="296" y="72" width="12" height="16"/>
    <rect x="320" y="72" width="12" height="16"/>
    <rect x="332" y="72" width="12" height="16"/>
    <rect x="344" y="72" width="12" height="16"/>
    <rect x="356" y="72" width="12" height="16"/>
    <rect x="368" y="72" width="12" height="16"/>
    <rect x="380" y="72" width="12" height="16"/>
    <rect x="392" y="72" width="12" height="16"/>
    <rect x="404" y="72" width="12" height="16"/>
    <rect x="416" y="72" width="12" height="16"/>
    <rect x="428" y="72" width="12" height="16"/>
    <rect x="440" y="72" width="12" height="16"/>
    <rect x="452" y="72" width="12" height="16"/>
    <rect x="464" y="72" width="12" height="16"/>
    <rect x="476" y="72" width="12" height="16"/>
    <rect x="488" y="72" width="12" height="16"/>
    <rect x="500" y="72" width="12" height="16"/>
    <rect x="512" y="72" width="12" height="16"/>
    <rect x="524" y="72" width="12" height="16"/>
    <rect x="536" y="72" width="12" height="16"/>
    <rect x="548" y="72" width="12" height="16"/>
    <rect x="560" y="72" width="12" height="16"/>
    <rect x="572" y="72" width="12" height="16"/>
    <rect x="20" y="88" width="12" height="16"/>
    <rect x="32" y="88" width="12" height="16"/>
    <rect x="44" y="88" width="12" height="16"/>
    <rect x="80" y="88" width="12" height="16"/>
    <rect x="92" y="88" width="12" height="16"/>
    <rect x="104" y="88" width="12" height="16"/>
    <rect x="116" y="88" width="12" height="16"/>
    <rect x="128" y="88" width="12" height="16"/>
    <rect x="140" y="88" width="12" height="16"/>
    <rect x="152" y="88" width="12" height="16"/>
    <rect x="164" y="88" width="12" height="16"/>
    <rect x="176" y="88" width="12" height="16"/>
    <rect x="212" y="88" width="12" height="16"/>
    <rect x="224" y="88" width="12" height="16"/>
    <rect x="236" y="88" width="12" height="16"/>
    <rect x="248" y="88" width="12" height="16"/>
    <rect x="260" y="88" width="12" height="16"/>
    <rect x="272" y="88" width="12" height="16"/>
    <rect x="284" y="88" width="12" height="16"/>
    <rect x="296" y="88" width="12" height="16"/>
    <rect x="332" y="88" width="12" height="16"/>
    <rect x="344" y="88" width="12" height="16"/>
    <rect x="356" y="88" width="12" height="16"/>
    <rect x="368" y="88" width="12" height="16"/>
    <rect x="380" y="88" width="12" height="16"/>
    <rect x="404" y="88" width="12" height="16"/>
    <rect x="416" y="88" width="12" height="16"/>
    <rect x="428" y="88" width="12" height="16"/>
    <rect x="440" y="88" width="12" height="16"/>
    <rect x="452" y="88" width="12" height="16"/>
    <rect x="464" y="88" width="12" height="16"/>
    <rect x="476" y="88" width="12" height="16"/>
    <rect x="500" y="88" width="12" height="16"/>
    <rect x="512" y="88" width="12" height="16"/>
    <rect x="524" y="88" width="12" height="16"/>
    <rect x="536" y="88" width="12" height="16"/>
    <rect x="548" y="88" width="12" height="16"/>
    <rect x="560" y="88" width="12" height="16"/>
  </g>
  <text x="296" y="124" font-family="ui-monospace, 'JetBrains Mono', Menlo, Consolas, monospace" font-size="13" fill="#888" letter-spacing="3" text-anchor="middle">s · t · a · t · u · s · l · i · n · e</text>
</svg>
